<?xml version="1.0" encoding="utf-8"?>
<!-- Generator: Adobe Illustrator 24.3.0, SVG Export Plug-In . SVG Version: 6.00 Build 0)  -->
<svg version="1.1" id="Layer_1" xmlns="http://www.w3.org/2000/svg" xmlns:xlink="http://www.w3.org/1999/xlink" x="0px" y="0px"
	 viewBox="0 0 400 400" style="enable-background:new 0 0 400 400;" xml:space="preserve">
<style type="text/css">
	.st0{fill:#CFF949;}
	.st1{fill:#0F1413;}
</style>
<g id="Layer_2_1_">
	<g id="Layer_1-2">
		<path class="st0" d="M388.1,93.9c-1.6-2.8-4.5-4.4-7.7-4.2c-0.7,0-1.4,0.1-2.1,0.2c-5,0.8-10.1,1.5-15,2.3
			c-4.5,0.7-9.3,1.4-13.9,2.1h-0.1c-3.6,0.5-6.7,2.8-8.3,6.1v0.1c-4.2,8.4-8.6,16.9-12.8,25.1l-4.5,8.8c-2,3.9-4,8-6.1,12.1
			c-0.9,1.8-1,3.8-0.3,5.7c-2.6,0.8-4.7,2.6-6,4.9c0,0.1,0,0.1-0.1,0.1l0,0c-2.5,4.8-4.9,9.7-7.3,14.4c-0.9,1.8-1.8,3.5-2.7,5.3
			c-1-5.2-2-10.3-3-15.5l-9.4-48.2c-0.3-2.2-1.2-4.3-2.5-6.1c-1.9-2.3-4.8-3.6-7.8-3.5c-0.8,0-1.7,0.1-2.8,0.2l-8.4,1.2l-8.5,1.2
			l-2.5,0.4c-3.1,0.5-6.2,0.9-9.4,1.4c-1.8,0.3-3.4,1.2-4.6,2.6c-1.1-0.7-2.5-1.1-3.8-1.1h-0.6c-0.3,0-0.6,0-0.9,0.1
			c-0.5,0-1.1,0.1-1.7,0.1h-0.1c-2.6,0.4-5.1,0.8-7.7,1.1c-7.5,1.1-15.2,2.3-22.8,3.2c-3.9,0.3-7.4,2.7-9,6.3l-0.6-0.9
			c-1.4-1.8-3.5-2.8-5.7-2.8c-0.3,0-0.7,0-1,0.1l-4.4,0.6c-3.1,0.4-6,0.8-8.9,1.2l-53.5,7.6l-12.6,1.8c-11.2,1.6-22.7,3.2-34,4.7
			c-15.8,2-27.3,11.6-31.5,26.4c-3.4,12.1-6.8,24.4-10,36.3c-1.3,4.9-2.7,9.8-4,14.7c-0.2,0.8-0.4,1.7-0.4,2.6v0.4
			c-0.2,1.7,0.2,3.4,1.1,4.8c-1.9,1.7-3.3,4-3.8,6.5l-0.1,0.2c-0.7,2.3-1.4,4.6-2,6.9c-0.4,1.4-0.8,2.7-1.2,4.1
			c-0.8,2.7-1.6,5.4-2.4,8.2c-0.8,2.8-1.6,5.5-2.4,8.2l0,0c-0.7,2.3-1.4,4.7-2.1,7c-1.7,5.6-3.5,11.4-4.7,17.4
			c-1.8,9,0.1,17.5,5.5,24c5.2,6.4,13.3,10,22.1,10c1.5,0,3.1-0.1,4.6-0.3c3.6-0.5,7.3-1,10.8-1.5s7.2-1,10.8-1.5
			c6.9-0.9,13.7-1.9,20.6-2.8c13.4-1.9,27.3-3.8,40.9-5.6c2.6-0.3,5-1.6,6.7-3.7c1,0.9,2.3,1.5,3.7,1.6h0.3c0.6,0.1,1.1,0.2,1.7,0.2
			c0.4,0,0.8,0,1.2-0.1c3.3-0.4,6.6-0.9,9.8-1.3c6.5-0.9,13.1-1.8,19.6-2.6c4.5-0.4,8.4-3.5,9.9-7.8c0.9-2.2,1.8-4.5,2.7-6.8
			c0.9-2.3,1.9-4.6,2.8-6.9c2.5-6.4,5.3-13.5,7.8-19.9c9-0.6,18-1.9,26.8-3.8c1.1,5.9,2.4,13.2,3.5,18.8c0.6,3,1.1,5.9,1.7,8.9v0.1
			c1.5,7.4,6.6,8.5,9.5,8.5c0.7,0,1.5-0.1,2.2-0.2l21.2-2.8c2.9-0.4,5.8-0.8,8.9-1.2c1.7-0.2,3.3-1.1,4.5-2.4c1.2,0.8,2.6,1.2,4,1.2
			c0.3,0,0.7,0,1-0.1c2-0.3,4-0.5,6-0.8c4.1-0.6,7.9-1.1,11.8-1.5c4.9-0.5,9.1-3.5,11.1-8c2.1-4.3,4.2-8.7,6.3-12.9
			c0.7-1.5,1.5-3,2.2-4.4l43.9-89.1c0.4-0.9,0.8-1.8,1.2-2.7l0.3-0.9c0.8-1.8,0.8-3.9,0-5.7c2.8-0.8,5.1-2.6,6.5-5.1
			c0-0.1,0.1-0.1,0.1-0.2c8.3-15.9,15.7-30.1,22.6-43.7v-0.1C389.2,100.9,389.9,97.2,388.1,93.9z"/>
		<path class="st1" d="M116.6,227.3c-7.1,1-13.7,2-20.8,3c0.5-1.8,0.8-3.4,1.2-4.9c2.1-7.4,4.2-14.8,6.2-22.2
			c0.4-1.4,1.1-1.8,2.5-2.1c14.7-2,29.3-4.1,44-6.2c4.2-0.6,8.4-1.2,13-1.8c-0.3,0.9-0.4,1.6-0.6,2.2l-34.2,94.2
			c-0.3,1.1-1.3,1.8-2.4,1.9c-20.5,2.8-41.1,5.6-61.6,8.5c-7.2,1-14.4,2.1-21.6,3c-15.6,2.1-27.1-9.7-24-25.1
			c1.6-8.1,4.4-15.9,6.6-23.9c1.6-5.4,3.2-10.9,4.8-16.3c1.1-3.7,2.1-7.4,3.2-11c0.4-1.3,0.7-2.9,2.1-3.5c1.3-0.4,2.6-0.7,3.9-0.7
			c9.4-1,19-2.2,28.5-3.3c0.9-0.2,0.9,0.6,0.7,1.2c-3.7,12.7-7.4,25.3-11,38c-0.4,1.5-0.6,3.1-0.5,4.7c0.3,3.1,2.9,5.4,6,5.4
			c3.4-0.1,6.9-0.3,10.3-0.8c7.3-0.9,14.5-1.8,21.8-2.9s12.3-5,14.5-11.9C112.1,244.4,114.2,236,116.6,227.3z"/>
		<path class="st1" d="M298.3,199.2c3-6,5.8-11.5,8.6-17c3.6-7.2,7.2-14.4,10.9-21.6c0.4-0.7,1-1.2,1.8-1.4
			c5.3-0.7,10.5-1.5,15.8-2.2s10.6-1.4,15.9-2.2c1.3-0.2,0.6,0.8,0.3,1.4c-0.5,1.2-1.1,2.4-1.6,3.6c-1.1,2.4-2.3,4.7-3.4,7.1
			c-0.3,0.7-0.7,1.4-1,2.1c0,0.1,0,0.1-0.1,0.1l0,0c-2.4,4.8-4.7,9.6-7.1,14.5l-7.1,14.5c-2.4,4.8-4.7,9.6-7.1,14.5l-7.1,14.5
			c-2.4,4.8-4.7,9.6-7.1,14.5c-1,2-1.9,3.9-2.9,5.9c-2.9,5.8-5.8,11.6-8.6,17.4c-0.9,2.2-3,3.8-5.4,3.9c-5.9,0.7-11.7,1.5-17.9,2.4
			c-3.2-18.8-6.5-37.4-9.7-56.2c6.5-2.8,12.9-5.6,19.8-8.6c-4.1-1.5-7.6-2.7-11.1-4.1c-3.1-1.2-6.2-2.3-9.2-3.5
			c-0.8-0.4-1.4-1.1-1.7-1.9c-3.3-17.1-6.5-34.1-9.7-51.2c-1.8-9.3-3.5-18.6-5.3-27.9c-0.1-0.7-0.2-1.4-0.3-2.3
			c4.1-0.6,8-1.2,11.9-1.8l16.9-2.4c3.5-0.5,4.3,0,4.9,3.5c3.1,16.1,6.2,32.2,9.4,48.2C293.5,174.8,295.8,186.7,298.3,199.2z"/>
		<path class="st1" d="M189.3,124c-2,5.1-3.8,9.8-5.6,14.5c-2.4,6.1-4.8,12.2-7.1,18.3c-0.4,1.2-1.4,2-2.6,2.1
			c-16.1,2.1-32.2,4.3-48.2,6.5c-11.4,1.5-22.9,3-34.3,4.7c-6.1,0.7-11.2,5.1-12.8,11.1c-2.5,8.6-4.8,17.3-7.2,25.9
			c-0.3,1.2-0.7,2-2.1,2.2c-10.7,1.5-21.4,3-32.2,4.4c-0.9,0.1-1.2-0.1-1.1-0.9c0.3-1.3,0.7-2.7,1-4c0.6-2.2,1.2-4.3,1.8-6.5
			c1.1-4,2.2-8,3.3-11.9l8.1-29.4c3.4-12.1,12.8-19.6,25.4-21.2c15.6-2,31.2-4.3,46.7-6.5c17.8-2.5,35.7-5,53.5-7.6
			C180.3,125.2,184.5,124.7,189.3,124z"/>
		<path class="st1" d="M238.4,117c0.1,0.2,0.2,0.5,0.3,0.7c0.8,4.8,1.9,9.6,2.8,14.5c1,5.2,2,10.4,2.9,15.6c0.9,5.2,2,10.4,2.9,15.6
			s2,10.5,3,15.7c0.5,2.5,1,5,1.4,7.6c0.2,1.3,0.5,2.5,0.7,3.8c0.1,0.6,0.2,1.3,0.4,1.9c0,0.7,0.2,1.3,0.4,1.9
			c-2-0.7-3.6-1.2-5.1-1.8c-9.4-3.3-18.8-6.6-28.2-9.8c-1.1-0.2-1.9-1.1-1.9-2.2c-0.6-3-1.3-6.1-2.1-9.7c-1,3.4-1.8,6.1-2.7,9.4
			c-9.7-3.3-19.3-6.6-29.1-9.9c2-5,3.8-9.6,5.6-14.3c4.1-10.5,8.2-21,12.2-31.5c0.5-1.7,2-2.9,3.8-3c5.3-0.7,10.6-1.4,15.9-2.2
			c2.5-0.4,5.1-0.8,7.6-1.1l3.8-0.6c1-0.1,2-0.3,2.9-0.4l1.8-0.3C237.9,116.7,238.2,116.8,238.4,117C238.3,117,238.4,117,238.4,117z
			"/>
		<path class="st1" d="M138,289.2c14.5-37.5,29.1-74.8,43.9-112.8c4.4,4.3,8.6,8.3,12.7,12.4c2.4,2.3,4.7,4.8,6.8,7.4
			c2.3,2.7,2.9,6.5,1.4,9.7c-8.2,20.8-16.2,41.6-24.4,62.5c-1.8,4.6-3.7,9.1-5.5,13.7c-0.5,1.8-2.1,3.1-4,3.2"/>
		<path class="st1" d="M194.2,244.4c0-0.2,0-0.3-0.1-0.5c20.8-8.7,41.7-17.4,62.8-26.2c3,18.3,5.9,36.4,8.9,54.6
			c-3.1,0.4-6,0.8-8.9,1.2c-7.1,0.9-14.1,1.9-21.2,2.8c-2.6,0.3-3.2-0.1-3.7-2.6c-2-10.3-4-20.7-5.9-31c-0.4-2.2-1.3-2.6-3.2-2.3"/>
		<path class="st1" d="M324.2,149.8c2.1-4.2,4.1-8.3,6.2-12.3c5.7-11.2,11.5-22.4,17.1-33.7c0.6-1.2,1.7-2.1,3-2.3
			c9.6-1.5,19.2-3,28.9-4.4c3-0.4,2.8,1.7,1.7,3.8c-1.6,3.1-3.2,6.1-4.8,9.1c-2.4,4.8-4.9,9.5-7.4,14.3c-3.3,6.4-6.5,12.9-10,19.2
			c-0.5,0.9-1.4,1.5-2.4,1.7c-10.5,1.7-21.1,3.2-31.6,4.7C324.6,149.9,324.4,149.8,324.2,149.8z"/>
	</g>
</g>
</svg>
