<svg xmlns="http://www.w3.org/2000/svg" version="1.1" xmlns:xlink="http://www.w3.org/1999/xlink" width="425.34" height="240.53"><svg xmlns="http://www.w3.org/2000/svg" version="1.1" xmlns:xlink="http://www.w3.org/1999/xlink" width="425.34" height="240.53"><svg xmlns="http://www.w3.org/2000/svg" viewBox="0 0 425.34 240.53"><defs><style>.cls-1{fill:#0f1413;}</style></defs><g id="Layer_2" data-name="Layer 2"><g id="Layer_1-2" data-name="Layer 1"><path class="cls-1" d="M115.45,152.05c-8.16,1.48-15.94,2.22-24.47,3.34.37-2.23,1.11-4.08,1.48-5.94,2.23-8.89,5.19-17.42,7.42-25.95a2.81,2.81,0,0,1,3-2.22c17.06-2.23,34.49-4.82,51.54-7,5.19-.74,9.64-1.48,15.2-2.22a23.58,23.58,0,0,1-.74,2.59l-40,110.12a2.83,2.83,0,0,1-3,2.23c-24.1,3.33-48.2,6.67-71.93,10-8.52,1.11-17,2.22-25.21,3.33C10.52,242.52-2.82,228.8.51,211c1.86-9.64,5.19-18.91,7.79-28.18q2.77-9.45,5.56-18.9c1.48-4.08,2.23-8.9,3.71-13,.37-1.48.74-3.34,2.22-4.08,1.49-.37,3.34-.37,4.45-.74,11.13-1.11,22.25-2.6,33.37-4.08,1.11-.37,1.11.37.74,1.48-4.08,14.83-8.9,29.66-13,44.5a14,14,0,0,0-.37,5.56,6.9,6.9,0,0,0,7,6.3,64.25,64.25,0,0,0,11.86-1.11l25.59-3.34c8.52-1.48,14.46-5.93,17-14.09C110.26,172.07,112.86,162.43,115.45,152.05Z"></path><path class="cls-1" d="M328.27,119.42c3.34-7,7-13.35,10-19.65,4.08-8.53,8.53-17,12.61-25.21a3,3,0,0,1,2.22-1.48c5.93-.74,12.24-1.86,18.54-2.6s12.24-1.48,18.91-2.59c1.48-.37.74,1.11.37,1.48-.37,1.48-1.48,3-1.85,4.08-1.49,3-2.6,5.56-4.08,8.15a7.49,7.49,0,0,1-1.49,2.23v.37c-3,5.56-5.56,11.49-8.52,17s-5.56,11.5-8.53,17.06-5.56,11.49-8.53,17.05-5.56,11.5-8.53,17.06-5.56,11.49-8.52,17.06c-1.12,2.22-2.23,4.44-3.34,7-3.34,7-7,13.72-10,20.39a7.91,7.91,0,0,1-6.3,4.45c-7.05.74-13.72,1.86-20.77,2.6-3.7-21.88-7.78-43.75-11.49-65.63,7.79-3.34,15.2-6.67,23.36-10-4.82-1.85-8.9-3.34-13-4.82-3.71-1.48-7-2.6-10.75-4.08-.74-.37-1.86-1.48-1.86-2.22-4.07-20-7.78-40-11.49-60.07-2.22-10.75-4.08-21.5-5.93-32.62a5.55,5.55,0,0,1-.37-2.6c4.82-.74,9.27-1.48,14.09-2.22,6.67-1.12,13.34-1.86,19.65-3,4.08-.37,5.19,0,5.93,4.08,3.71,18.91,7.41,37.82,11.12,56.35C322.34,90.87,325.3,104.59,328.27,119.42Z"></path><path class="cls-1" d="M200.73,31.55c-2.23,5.93-4.45,11.49-6.68,17.06-2.59,7-5.56,14.09-8.15,21.5-.37,1.48-1.49,2.23-3.34,2.23-18.91,2.22-37.82,5.19-56.36,7.78-13.34,1.85-26.69,3.34-40,5.56-7.42,1.11-13,5.56-15.2,13-3,10-5.56,20.39-8.53,30.4-.37,1.49-.74,2.23-2.22,2.6C47.6,133.14,35,135,22.39,136.85c-1.11.37-1.48,0-1.48-1.11a23.82,23.82,0,0,1,1.48-4.82c.37-2.6,1.48-5.19,2.22-7.79,1.49-4.82,2.6-9.27,3.71-14.09,3.34-11.49,6.3-23,9.64-34.48,4.08-14.09,15.2-23,30-24.84,18.17-2.23,36.34-5.19,54.51-7.79,20.76-3,41.89-5.93,62.65-8.9C190.35,32.66,194.79,31.92,200.73,31.55Z"></path><path class="cls-1" d="M258.2,23c.37.37.37.37.37.74,1.11,5.57,2.22,11.5,3.33,17.06,1.12,5.93,2.23,12.24,3.34,18.17s2.22,12.23,3.34,18.17,2.22,12.23,3.33,18.53c.37,3,1.12,5.94,1.49,8.9.37,1.49.37,3,.74,4.45a4.71,4.71,0,0,1,.37,2.23c0,.37.37,2.22.37,2.22-2.22-.74-4.08-1.48-5.93-2.22-11.13-4.08-21.88-7.79-33-11.5-1.48-.37-2.22-1.11-2.22-2.59-.38-3.34-1.49-7.05-2.23-11.5-1.11,4.08-2.22,7-3.34,11.13-11.49-4.08-22.61-7.79-34.11-11.5q3.34-8.9,6.68-16.68c4.82-12.24,9.64-24.47,14.09-37.08.74-2.22,1.85-3.34,4.45-3.34,6.3-.74,12.23-1.48,18.9-2.59a74.08,74.08,0,0,0,8.9-1.48c1.49-.38,3-.38,4.45-.75a10.3,10.3,0,0,1,3.34-.37c.74,0,1.48-.37,2.22-.37A1.66,1.66,0,0,1,258.2,23Z"></path><path class="cls-1" d="M140.66,224.72c17.06-43.75,34.11-87.87,51.17-132,5.19,5.19,10,9.64,14.83,14.46a61.08,61.08,0,0,1,7.79,8.9c3,3.33,3.33,7,1.48,11.49-9.64,24.47-18.91,48.94-28.55,73-2.23,5.19-4.08,10.38-6.3,15.94-.75,2.23-2.23,3.34-4.82,3.71"></path><path class="cls-1" d="M206.66,172.07h0l73.41-31.14c3.34,21.5,7.05,42.63,10.38,63.77-3.71.37-7,1.11-10.38,1.48-8.16,1.11-16.68,2.23-24.84,3.34-3.34.37-3.71,0-4.08-3.34-2.22-12.23-4.82-24.47-7-36.33-.37-2.6-1.49-3-3.71-2.6"></path><path class="cls-1" d="M358.3,61.58c2.23-5.19,4.82-9.64,7.05-14.46,6.67-13.34,13.34-26.32,20-39.3a4.7,4.7,0,0,1,3.34-2.59C400.2,3.74,411.32,1.89,422.45,0c3.33-.38,3.33,2.22,2.22,4.44-1.85,3.71-3.71,7-5.56,10.76l-8.9,16.68c-4.08,7.42-7.79,15.2-11.49,22.62a7.57,7.57,0,0,1-2.6,2.22c-12.23,1.86-24.47,3.71-37.08,5.56C359.41,61.58,359,61.58,358.3,61.58Z"></path></g></g></svg></svg><style>@media (prefers-color-scheme: light) { :root { filter: none; } }
@media (prefers-color-scheme: dark) { :root { filter: invert(100%); } }
</style></svg>